<svg id="visual" viewBox="0 0 900 450" width="900" height="450" xmlns="http://www.w3.org/2000/svg" xmlns:xlink="http://www.w3.org/1999/xlink" version="1.1"><g stroke-width="1" stroke-linejoin="bevel"><path d="M440 217L380 309L459 247Z" fill="#1f2324" stroke="#1f2324"></path><path d="M380 309L422 347L459 247Z" fill="#232728" stroke="#232728"></path><path d="M440 217L344 173L380 309Z" fill="#0e1314" stroke="#0e1314"></path><path d="M473 109L413 149L440 217Z" fill="#0e1314" stroke="#0e1314"></path><path d="M440 217L413 149L344 173Z" fill="#01080a" stroke="#01080a"></path><path d="M344 173L308 329L380 309Z" fill="#2b2f30" stroke="#2b2f30"></path><path d="M380 309L358 381L422 347Z" fill="#131718" stroke="#131718"></path><path d="M308 329L358 381L380 309Z" fill="#1b1f20" stroke="#1b1f20"></path><path d="M413 149L349 121L344 173Z" fill="#232728" stroke="#232728"></path><path d="M344 173L232 280L308 329Z" fill="#080e10" stroke="#080e10"></path><path d="M612 305L540 173L459 247Z" fill="#2b2f30" stroke="#2b2f30"></path><path d="M459 247L540 173L440 217Z" fill="#080e10" stroke="#080e10"></path><path d="M413 149L473 109L349 121Z" fill="#171b1c" stroke="#171b1c"></path><path d="M540 173L473 109L440 217Z" fill="#000000" stroke="#000000"></path><path d="M194 238L232 280L344 173Z" fill="#1f2324" stroke="#1f2324"></path><path d="M308 329L253 361L358 381Z" fill="#000000" stroke="#000000"></path><path d="M352 450L517 400L422 347Z" fill="#01080a" stroke="#01080a"></path><path d="M422 347L517 400L459 247Z" fill="#1b1f20" stroke="#1b1f20"></path><path d="M232 280L253 361L308 329Z" fill="#272b2c" stroke="#272b2c"></path><path d="M341 450L352 450L358 381Z" fill="#232728" stroke="#232728"></path><path d="M358 381L352 450L422 347Z" fill="#232728" stroke="#232728"></path><path d="M253 361L341 450L358 381Z" fill="#080e10" stroke="#080e10"></path><path d="M517 400L612 305L459 247Z" fill="#272b2c" stroke="#272b2c"></path><path d="M277 66L194 238L344 173Z" fill="#272b2c" stroke="#272b2c"></path><path d="M232 280L131 328L253 361Z" fill="#0e1314" stroke="#0e1314"></path><path d="M309 0L277 66L349 121Z" fill="#171b1c" stroke="#171b1c"></path><path d="M349 121L277 66L344 173Z" fill="#0e1314" stroke="#0e1314"></path><path d="M612 305L646 242L540 173Z" fill="#1f2324" stroke="#1f2324"></path><path d="M540 173L557 0L473 109Z" fill="#232728" stroke="#232728"></path><path d="M352 450L555 450L517 400Z" fill="#232728" stroke="#232728"></path><path d="M517 400L613 450L612 305Z" fill="#01080a" stroke="#01080a"></path><path d="M612 305L653 290L646 242Z" fill="#232728" stroke="#232728"></path><path d="M613 450L647 304L612 305Z" fill="#171b1c" stroke="#171b1c"></path><path d="M647 304L653 290L612 305Z" fill="#1b1f20" stroke="#1b1f20"></path><path d="M473 109L391 0L349 121Z" fill="#272b2c" stroke="#272b2c"></path><path d="M557 0L391 0L473 109Z" fill="#232728" stroke="#232728"></path><path d="M391 0L309 0L349 121Z" fill="#01080a" stroke="#01080a"></path><path d="M555 450L613 450L517 400Z" fill="#1b1f20" stroke="#1b1f20"></path><path d="M647 304L690 307L653 290Z" fill="#131718" stroke="#131718"></path><path d="M194 238L131 328L232 280Z" fill="#0e1314" stroke="#0e1314"></path><path d="M253 361L182 450L341 450Z" fill="#272b2c" stroke="#272b2c"></path><path d="M112 237L131 328L194 238Z" fill="#01080a" stroke="#01080a"></path><path d="M112 237L194 238L149 52Z" fill="#272b2c" stroke="#272b2c"></path><path d="M706 450L690 307L647 304Z" fill="#01080a" stroke="#01080a"></path><path d="M653 290L690 307L646 242Z" fill="#1f2324" stroke="#1f2324"></path><path d="M131 328L182 450L253 361Z" fill="#0e1314" stroke="#0e1314"></path><path d="M149 52L194 238L277 66Z" fill="#01080a" stroke="#01080a"></path><path d="M691 103L540 173L646 242Z" fill="#000000" stroke="#000000"></path><path d="M605 0L557 0L540 173Z" fill="#01080a" stroke="#01080a"></path><path d="M751 270L691 103L646 242Z" fill="#080e10" stroke="#080e10"></path><path d="M661 33L605 0L540 173Z" fill="#171b1c" stroke="#171b1c"></path><path d="M179 0L149 52L277 66Z" fill="#131718" stroke="#131718"></path><path d="M691 103L661 33L540 173Z" fill="#272b2c" stroke="#272b2c"></path><path d="M309 0L179 0L277 66Z" fill="#1b1f20" stroke="#1b1f20"></path><path d="M819 405L751 270L690 307Z" fill="#01080a" stroke="#01080a"></path><path d="M690 307L751 270L646 242Z" fill="#1b1f20" stroke="#1b1f20"></path><path d="M40 326L111 450L131 328Z" fill="#1f2324" stroke="#1f2324"></path><path d="M131 328L111 450L182 450Z" fill="#01080a" stroke="#01080a"></path><path d="M613 450L706 450L647 304Z" fill="#0e1314" stroke="#0e1314"></path><path d="M112 237L40 326L131 328Z" fill="#272b2c" stroke="#272b2c"></path><path d="M0 218L40 326L112 237Z" fill="#1f2324" stroke="#1f2324"></path><path d="M115 0L69 72L149 52Z" fill="#1b1f20" stroke="#1b1f20"></path><path d="M149 52L69 72L112 237Z" fill="#171b1c" stroke="#171b1c"></path><path d="M179 0L115 0L149 52Z" fill="#000000" stroke="#000000"></path><path d="M804 221L750 70L691 103Z" fill="#01080a" stroke="#01080a"></path><path d="M691 103L750 70L661 33Z" fill="#2b2f30" stroke="#2b2f30"></path><path d="M661 33L720 0L605 0Z" fill="#272b2c" stroke="#272b2c"></path><path d="M751 270L804 221L691 103Z" fill="#080e10" stroke="#080e10"></path><path d="M900 272L804 221L751 270Z" fill="#2b2f30" stroke="#2b2f30"></path><path d="M0 196L0 218L112 237Z" fill="#1b1f20" stroke="#1b1f20"></path><path d="M750 70L720 0L661 33Z" fill="#2b2f30" stroke="#2b2f30"></path><path d="M69 72L0 196L112 237Z" fill="#272b2c" stroke="#272b2c"></path><path d="M0 218L0 395L40 326Z" fill="#1b1f20" stroke="#1b1f20"></path><path d="M40 326L0 395L111 450Z" fill="#0e1314" stroke="#0e1314"></path><path d="M706 450L819 405L690 307Z" fill="#232728" stroke="#232728"></path><path d="M0 395L0 450L111 450Z" fill="#1f2324" stroke="#1f2324"></path><path d="M0 0L0 29L69 72Z" fill="#272b2c" stroke="#272b2c"></path><path d="M69 72L0 29L0 196Z" fill="#272b2c" stroke="#272b2c"></path><path d="M115 0L0 0L69 72Z" fill="#232728" stroke="#232728"></path><path d="M706 450L857 450L819 405Z" fill="#000000" stroke="#000000"></path><path d="M819 405L900 272L751 270Z" fill="#1b1f20" stroke="#1b1f20"></path><path d="M900 392L900 272L819 405Z" fill="#232728" stroke="#232728"></path><path d="M804 221L900 144L750 70Z" fill="#000000" stroke="#000000"></path><path d="M750 70L853 0L720 0Z" fill="#272b2c" stroke="#272b2c"></path><path d="M900 272L900 188L804 221Z" fill="#232728" stroke="#232728"></path><path d="M900 188L900 144L804 221Z" fill="#1b1f20" stroke="#1b1f20"></path><path d="M857 450L900 392L819 405Z" fill="#232728" stroke="#232728"></path><path d="M900 144L853 0L750 70Z" fill="#2b2f30" stroke="#2b2f30"></path><path d="M857 450L900 450L900 392Z" fill="#272b2c" stroke="#272b2c"></path><path d="M900 144L900 0L853 0Z" fill="#01080a" stroke="#01080a"></path></g></svg>