<svg id="visual" viewBox="0 0 1201 25" width="1201" height="25" xmlns="http://www.w3.org/2000/svg" xmlns:xlink="http://www.w3.org/1999/xlink" version="1.1"><path d="M0 5L14.3 4.8C28.7 4.7 57.3 4.3 86 4.3C114.7 4.3 143.3 4.7 171.8 4.3C200.3 4 228.7 3 257.2 2.7C285.7 2.3 314.3 2.7 343 2.7C371.7 2.7 400.3 2.3 429 2.5C457.7 2.7 486.3 3.3 515 3.7C543.7 4 572.3 4 600.8 3.8C629.3 3.7 657.7 3.3 686.2 3.3C714.7 3.3 743.3 3.7 772 3.7C800.7 3.7 829.3 3.3 858 3.5C886.7 3.7 915.3 4.3 943.8 4.7C972.3 5 1000.7 5 1029.2 4.7C1057.7 4.3 1086.3 3.7 1115 3.5C1143.7 3.3 1172.3 3.7 1186.7 3.8L1201 4L1201 0L1186.7 0C1172.3 0 1143.7 0 1115 0C1086.3 0 1057.7 0 1029.2 0C1000.7 0 972.3 0 943.8 0C915.3 0 886.7 0 858 0C829.3 0 800.7 0 772 0C743.3 0 714.7 0 686.2 0C657.7 0 629.3 0 600.8 0C572.3 0 543.7 0 515 0C486.3 0 457.7 0 429 0C400.3 0 371.7 0 343 0C314.3 0 285.7 0 257.2 0C228.7 0 200.3 0 171.8 0C143.3 0 114.7 0 86 0C57.3 0 28.7 0 14.3 0L0 0Z" fill="#000000"></path><path d="M0 7L14.3 7C28.7 7 57.3 7 86 7.2C114.7 7.3 143.3 7.7 171.8 7.3C200.3 7 228.7 6 257.2 5.8C285.7 5.7 314.3 6.3 343 6.5C371.7 6.7 400.3 6.3 429 6.2C457.7 6 486.3 6 515 6C543.7 6 572.3 6 600.8 5.8C629.3 5.7 657.7 5.3 686.2 5.2C714.7 5 743.3 5 772 4.8C800.7 4.7 829.3 4.3 858 4.7C886.7 5 915.3 6 943.8 6.8C972.3 7.7 1000.7 8.3 1029.2 8.3C1057.7 8.3 1086.3 7.7 1115 7.3C1143.7 7 1172.3 7 1186.7 7L1201 7L1201 2L1186.7 1.8C1172.3 1.7 1143.7 1.3 1115 1.5C1086.3 1.7 1057.7 2.3 1029.2 2.7C1000.7 3 972.3 3 943.8 2.7C915.3 2.3 886.7 1.7 858 1.5C829.3 1.3 800.7 1.7 772 1.7C743.3 1.7 714.7 1.3 686.2 1.3C657.7 1.3 629.3 1.7 600.8 1.8C572.3 2 543.7 2 515 1.7C486.3 1.3 457.7 0.7 429 0.5C400.3 0.3 371.7 0.7 343 0.7C314.3 0.7 285.7 0.3 257.2 0.7C228.7 1 200.3 2 171.8 2.3C143.3 2.7 114.7 2.3 86 2.3C57.3 2.3 28.7 2.7 14.3 2.8L0 3Z" fill="#070707"></path><path d="M0 11L14.3 10.8C28.7 10.7 57.3 10.3 86 10.7C114.7 11 143.3 12 171.8 11.7C200.3 11.3 228.7 9.7 257.2 9.7C285.7 9.7 314.3 11.3 343 12.3C371.7 13.3 400.3 13.7 429 13.2C457.7 12.7 486.3 11.3 515 10.5C543.7 9.7 572.3 9.3 600.8 9.7C629.3 10 657.7 11 686.2 11.5C714.7 12 743.3 12 772 11.2C800.7 10.3 829.3 8.7 858 8.2C886.7 7.7 915.3 8.3 943.8 10C972.3 11.7 1000.7 14.3 1029.2 15.3C1057.7 16.3 1086.3 15.7 1115 15C1143.7 14.3 1172.3 13.7 1186.7 13.3L1201 13L1201 5L1186.7 5C1172.3 5 1143.7 5 1115 5.3C1086.3 5.7 1057.7 6.3 1029.2 6.3C1000.7 6.3 972.3 5.7 943.8 4.8C915.3 4 886.7 3 858 2.7C829.3 2.3 800.7 2.7 772 2.8C743.3 3 714.7 3 686.2 3.2C657.7 3.3 629.3 3.7 600.8 3.8C572.3 4 543.7 4 515 4C486.3 4 457.7 4 429 4.2C400.3 4.3 371.7 4.7 343 4.5C314.3 4.3 285.7 3.7 257.2 3.8C228.7 4 200.3 5 171.8 5.3C143.3 5.7 114.7 5.3 86 5.2C57.3 5 28.7 5 14.3 5L0 5Z" fill="#0d0d0d"></path><path d="M0 12L14.3 11.8C28.7 11.7 57.3 11.3 86 11.7C114.7 12 143.3 13 171.8 12.7C200.3 12.3 228.7 10.7 257.2 10.7C285.7 10.7 314.3 12.3 343 13.2C371.7 14 400.3 14 429 13.5C457.7 13 486.3 12 515 11.5C543.7 11 572.3 11 600.8 11.5C629.3 12 657.7 13 686.2 13.3C714.7 13.7 743.3 13.3 772 12.5C800.7 11.7 829.3 10.3 858 10.2C886.7 10 915.3 11 943.8 12.3C972.3 13.7 1000.7 15.3 1029.2 16.2C1057.7 17 1086.3 17 1115 16.5C1143.7 16 1172.3 15 1186.7 14.5L1201 14L1201 11L1186.7 11.3C1172.3 11.7 1143.7 12.3 1115 13C1086.3 13.7 1057.7 14.3 1029.2 13.3C1000.7 12.3 972.3 9.7 943.8 8C915.3 6.3 886.7 5.7 858 6.2C829.3 6.7 800.7 8.3 772 9.2C743.3 10 714.7 10 686.2 9.5C657.7 9 629.3 8 600.8 7.7C572.3 7.3 543.7 7.7 515 8.5C486.3 9.3 457.7 10.7 429 11.2C400.3 11.7 371.7 11.3 343 10.3C314.3 9.3 285.7 7.7 257.2 7.7C228.7 7.7 200.3 9.3 171.8 9.7C143.3 10 114.7 9 86 8.7C57.3 8.3 28.7 8.7 14.3 8.8L0 9Z" fill="#121212"></path><path d="M0 14L14.3 13.8C28.7 13.7 57.3 13.3 86 13.7C114.7 14 143.3 15 171.8 14.8C200.3 14.7 228.7 13.3 257.2 13.5C285.7 13.7 314.3 15.3 343 16.2C371.7 17 400.3 17 429 16.5C457.7 16 486.3 15 515 14.3C543.7 13.7 572.3 13.3 600.8 13.5C629.3 13.7 657.7 14.3 686.2 14.7C714.7 15 743.3 15 772 14.2C800.7 13.3 829.3 11.7 858 11.3C886.7 11 915.3 12 943.8 13.3C972.3 14.7 1000.7 16.3 1029.2 17C1057.7 17.7 1086.3 17.3 1115 16.8C1143.7 16.3 1172.3 15.7 1186.7 15.3L1201 15L1201 12L1186.7 12.5C1172.3 13 1143.7 14 1115 14.5C1086.3 15 1057.7 15 1029.2 14.2C1000.7 13.3 972.3 11.7 943.8 10.3C915.3 9 886.7 8 858 8.2C829.3 8.3 800.7 9.7 772 10.5C743.3 11.3 714.7 11.7 686.2 11.3C657.7 11 629.3 10 600.8 9.5C572.3 9 543.7 9 515 9.5C486.3 10 457.7 11 429 11.5C400.3 12 371.7 12 343 11.2C314.3 10.3 285.7 8.7 257.2 8.7C228.7 8.7 200.3 10.3 171.8 10.7C143.3 11 114.7 10 86 9.7C57.3 9.3 28.7 9.7 14.3 9.8L0 10Z" fill="#131313"></path><path d="M0 22L14.3 21.3C28.7 20.7 57.3 19.3 86 19.3C114.7 19.3 143.3 20.7 171.8 20.5C200.3 20.3 228.7 18.7 257.2 18.2C285.7 17.7 314.3 18.3 343 18.8C371.7 19.3 400.3 19.7 429 19.7C457.7 19.7 486.3 19.3 515 19.7C543.7 20 572.3 21 600.8 21.2C629.3 21.3 657.7 20.7 686.2 19.8C714.7 19 743.3 18 772 17.7C800.7 17.3 829.3 17.7 858 18.3C886.7 19 915.3 20 943.8 20.5C972.3 21 1000.7 21 1029.2 20.8C1057.7 20.7 1086.3 20.3 1115 20.3C1143.7 20.3 1172.3 20.7 1186.7 20.8L1201 21L1201 13L1186.7 13.3C1172.3 13.7 1143.7 14.3 1115 14.8C1086.3 15.3 1057.7 15.7 1029.2 15C1000.7 14.3 972.3 12.7 943.8 11.3C915.3 10 886.7 9 858 9.3C829.3 9.7 800.7 11.3 772 12.2C743.3 13 714.7 13 686.2 12.7C657.7 12.3 629.3 11.7 600.8 11.5C572.3 11.3 543.7 11.7 515 12.3C486.3 13 457.7 14 429 14.5C400.3 15 371.7 15 343 14.2C314.3 13.3 285.7 11.7 257.2 11.5C228.7 11.3 200.3 12.7 171.8 12.8C143.3 13 114.7 12 86 11.7C57.3 11.3 28.7 11.7 14.3 11.8L0 12Z" fill="#121212"></path><path d="M0 24L14.3 23.3C28.7 22.7 57.3 21.3 86 21.2C114.7 21 143.3 22 171.8 22C200.3 22 228.7 21 257.2 20.5C285.7 20 314.3 20 343 20.3C371.7 20.7 400.3 21.3 429 21.7C457.7 22 486.3 22 515 22.3C543.7 22.7 572.3 23.3 600.8 23C629.3 22.7 657.7 21.3 686.2 20.7C714.7 20 743.3 20 772 19.8C800.7 19.7 829.3 19.3 858 19.7C886.7 20 915.3 21 943.8 21.7C972.3 22.3 1000.7 22.7 1029.2 22.7C1057.7 22.7 1086.3 22.3 1115 22.3C1143.7 22.3 1172.3 22.7 1186.7 22.8L1201 23L1201 19L1186.7 18.8C1172.3 18.7 1143.7 18.3 1115 18.3C1086.3 18.3 1057.7 18.7 1029.2 18.8C1000.7 19 972.3 19 943.8 18.5C915.3 18 886.7 17 858 16.3C829.3 15.7 800.7 15.3 772 15.7C743.3 16 714.7 17 686.2 17.8C657.7 18.7 629.3 19.3 600.8 19.2C572.3 19 543.7 18 515 17.7C486.3 17.3 457.7 17.7 429 17.7C400.3 17.7 371.7 17.3 343 16.8C314.3 16.3 285.7 15.7 257.2 16.2C228.7 16.7 200.3 18.3 171.8 18.5C143.3 18.7 114.7 17.3 86 17.3C57.3 17.3 28.7 18.7 14.3 19.3L0 20Z" fill="#0d0d0d"></path><path d="M0 25L14.3 24.5C28.7 24 57.3 23 86 22.8C114.7 22.7 143.3 23.3 171.8 23.3C200.3 23.3 228.7 22.7 257.2 22.2C285.7 21.7 314.3 21.3 343 21.5C371.7 21.7 400.3 22.3 429 22.7C457.7 23 486.3 23 515 23.3C543.7 23.7 572.3 24.3 600.8 24.2C629.3 24 657.7 23 686.2 22.5C714.7 22 743.3 22 772 21.8C800.7 21.7 829.3 21.3 858 21.3C886.7 21.3 915.3 21.7 943.8 22C972.3 22.3 1000.7 22.7 1029.2 22.8C1057.7 23 1086.3 23 1115 23.2C1143.7 23.3 1172.3 23.7 1186.7 23.8L1201 24L1201 21L1186.7 20.8C1172.3 20.7 1143.7 20.3 1115 20.3C1086.3 20.3 1057.7 20.7 1029.2 20.7C1000.7 20.7 972.3 20.3 943.8 19.7C915.3 19 886.7 18 858 17.7C829.3 17.3 800.7 17.7 772 17.8C743.3 18 714.7 18 686.2 18.7C657.7 19.3 629.3 20.7 600.8 21C572.3 21.3 543.7 20.7 515 20.3C486.3 20 457.7 20 429 19.7C400.3 19.3 371.7 18.7 343 18.3C314.3 18 285.7 18 257.2 18.5C228.7 19 200.3 20 171.8 20C143.3 20 114.7 19 86 19.2C57.3 19.3 28.7 20.7 14.3 21.3L0 22Z" fill="#070707"></path><path d="M0 26L14.3 26C28.7 26 57.3 26 86 26C114.7 26 143.3 26 171.8 26C200.3 26 228.7 26 257.2 26C285.7 26 314.3 26 343 26C371.7 26 400.3 26 429 26C457.7 26 486.3 26 515 26C543.7 26 572.3 26 600.8 26C629.3 26 657.7 26 686.2 26C714.7 26 743.3 26 772 26C800.7 26 829.3 26 858 26C886.7 26 915.3 26 943.8 26C972.3 26 1000.7 26 1029.2 26C1057.7 26 1086.3 26 1115 26C1143.7 26 1172.3 26 1186.7 26L1201 26L1201 22L1186.7 21.8C1172.3 21.7 1143.7 21.3 1115 21.2C1086.3 21 1057.7 21 1029.2 20.8C1000.7 20.7 972.3 20.3 943.8 20C915.3 19.7 886.7 19.3 858 19.3C829.3 19.3 800.7 19.7 772 19.8C743.3 20 714.7 20 686.2 20.5C657.7 21 629.3 22 600.8 22.2C572.3 22.3 543.7 21.7 515 21.3C486.3 21 457.7 21 429 20.7C400.3 20.3 371.7 19.7 343 19.5C314.3 19.3 285.7 19.7 257.2 20.2C228.7 20.7 200.3 21.3 171.8 21.3C143.3 21.3 114.7 20.7 86 20.8C57.3 21 28.7 22 14.3 22.5L0 23Z" fill="#000000"></path></svg>