<svg id="visual" viewBox="0 0 675 100" width="675" height="100" xmlns="http://www.w3.org/2000/svg" xmlns:xlink="http://www.w3.org/1999/xlink" version="1.1"><path d="M0 24L5.2 34C10.3 44 20.7 64 30.8 73.5C41 83 51 82 61.2 72.3C71.3 62.7 81.7 44.3 92 39.2C102.3 34 112.7 42 122.8 51.5C133 61 143 72 153.2 72.5C163.3 73 173.7 63 184 58.5C194.3 54 204.7 55 214.8 56.7C225 58.3 235 60.7 245.2 63.8C255.3 67 265.7 71 276 65.3C286.3 59.7 296.7 44.3 307 38.2C317.3 32 327.7 35 337.8 35.8C348 36.7 358 35.3 368.2 37.5C378.3 39.7 388.7 45.3 399 53.5C409.3 61.7 419.7 72.3 429.8 76.8C440 81.3 450 79.7 460.2 73.3C470.3 67 480.7 56 491 53.2C501.3 50.3 511.7 55.7 521.8 55.3C532 55 542 49 552.2 49.5C562.3 50 572.7 57 583 56.7C593.3 56.3 603.7 48.7 613.8 52.5C624 56.3 634 71.7 644.2 74.8C654.3 78 664.7 69 669.8 64.5L675 60L675 101L669.8 101C664.7 101 654.3 101 644.2 101C634 101 624 101 613.8 101C603.7 101 593.3 101 583 101C572.7 101 562.3 101 552.2 101C542 101 532 101 521.8 101C511.7 101 501.3 101 491 101C480.7 101 470.3 101 460.2 101C450 101 440 101 429.8 101C419.7 101 409.3 101 399 101C388.7 101 378.3 101 368.2 101C358 101 348 101 337.8 101C327.7 101 317.3 101 307 101C296.7 101 286.3 101 276 101C265.7 101 255.3 101 245.2 101C235 101 225 101 214.8 101C204.7 101 194.3 101 184 101C173.7 101 163.3 101 153.2 101C143 101 133 101 122.8 101C112.7 101 102.3 101 92 101C81.7 101 71.3 101 61.2 101C51 101 41 101 30.8 101C20.7 101 10.3 101 5.2 101L0 101Z" fill="#ACACAC" stroke-linecap="round" stroke-linejoin="miter"></path></svg>